<svg width="22" height="25" viewBox="0 0 22 25" fill="none" xmlns="http://www.w3.org/2000/svg">
<g id="instagram logo" clip-path="url(#clip0_1_2258)">
<path id="Vector" d="M10.7445 6.78931C7.71315 6.78931 5.26803 9.19622 5.26803 12.1802C5.26803 15.1642 7.71315 17.5712 10.7445 17.5712C13.7759 17.5712 16.221 15.1642 16.221 12.1802C16.221 9.19622 13.7759 6.78931 10.7445 6.78931ZM10.7445 15.685C8.78557 15.685 7.18409 14.1133 7.18409 12.1802C7.18409 10.2472 8.7808 8.67543 10.7445 8.67543C12.7082 8.67543 14.305 10.2472 14.305 12.1802C14.305 14.1133 12.7035 15.685 10.7445 15.685ZM17.7224 6.56879C17.7224 7.26788 17.1505 7.82621 16.445 7.82621C15.7349 7.82621 15.1677 7.26319 15.1677 6.56879C15.1677 5.8744 15.7396 5.31138 16.445 5.31138C17.1505 5.31138 17.7224 5.8744 17.7224 6.56879ZM21.3496 7.84497C21.2686 6.1606 20.8777 4.6686 19.6242 3.43934C18.3754 2.21007 16.8597 1.82534 15.1486 1.74089C13.3851 1.64236 8.09922 1.64236 6.33568 1.74089C4.62934 1.82065 3.11365 2.20538 1.86011 3.43464C0.606567 4.66391 0.220495 6.15591 0.134701 7.84028C0.0346082 9.57626 0.0346082 14.7795 0.134701 16.5155C0.215728 18.1999 0.606567 19.6919 1.86011 20.9211C3.11365 22.1504 4.62457 22.5351 6.33568 22.6196C8.09922 22.7181 13.3851 22.7181 15.1486 22.6196C16.8597 22.5398 18.3754 22.1551 19.6242 20.9211C20.873 19.6919 21.2638 18.1999 21.3496 16.5155C21.4497 14.7795 21.4497 9.58096 21.3496 7.84497ZM19.0713 18.3782C18.6995 19.2978 17.9798 20.0062 17.0408 20.3769C15.6348 20.9258 12.2983 20.7991 10.7445 20.7991C9.19071 20.7991 5.84952 20.9211 4.44822 20.3769C3.51402 20.0109 2.79431 19.3025 2.41777 18.3782C1.86011 16.9941 1.9888 13.7098 1.9888 12.1802C1.9888 10.6507 1.86487 7.36171 2.41777 5.98231C2.78954 5.06271 3.50925 4.35424 4.44822 3.98359C5.85428 3.43464 9.19071 3.56132 10.7445 3.56132C12.2983 3.56132 15.6395 3.43934 17.0408 3.98359C17.975 4.34955 18.6947 5.05802 19.0713 5.98231C19.6289 7.36641 19.5003 10.6507 19.5003 12.1802C19.5003 13.7098 19.6289 16.9988 19.0713 18.3782Z" fill="white"/>
</g>
<defs>
<clipPath id="clip0_1_2258">
<rect width="21.3531" height="24.0222" fill="white" transform="translate(0.0636597 0.172852)"/>
</clipPath>
</defs>
</svg>
