<svg width="22" height="21" viewBox="0 0 22 21" fill="none" xmlns="http://www.w3.org/2000/svg">
<g id="linkedin logo" clip-path="url(#clip0_1_2262)">
<path id="Vector" d="M4.86291 20.5254V7.0189H0.28493L0.28493 20.5254H4.86291ZM2.57451 5.17372C4.17093 5.17372 5.16463 4.13658 5.16463 2.8405C5.13489 1.51519 4.17099 0.506836 2.60481 0.506836C1.03886 0.506836 0.0148315 1.51521 0.0148315 2.8405C0.0148315 4.13664 1.00828 5.17372 2.54463 5.17372H2.57437H2.57451ZM7.3968 20.5254H11.9748V12.9827C11.9748 12.579 12.0045 12.1758 12.1254 11.8872C12.4564 11.0807 13.2096 10.2454 14.4743 10.2454C16.1308 10.2454 16.7936 11.4839 16.7936 13.2996V20.5253H21.3713V12.7808C21.3713 8.63214 19.1127 6.70181 16.1007 6.70181C13.6311 6.70181 12.5467 8.05551 11.9443 8.9775H11.9749V7.01862H7.39691C7.45699 8.286 7.39691 20.5251 7.39691 20.5251L7.3968 20.5254Z" fill="white"/>
</g>
<defs>
<clipPath id="clip0_1_2262">
<rect width="21.3531" height="20.0185" fill="white" transform="translate(0.0148315 0.506836)"/>
</clipPath>
</defs>
</svg>
