<svg width="189" height="190" viewBox="0 0 189 190" fill="none" xmlns="http://www.w3.org/2000/svg">
<g id="Group">
<g id="Layer 1">
<path id="Vector" d="M35.4516 91.7382C41.0641 88.498 51.1395 87.856 57.8415 90.3113L160.682 128.006C167.384 130.462 168.274 135.124 162.661 138.364L104.646 171.859C99.0328 175.1 90.9596 174.586 86.7052 170.717L21.4166 111.342C17.1622 107.473 18.2736 101.655 23.8871 98.415L35.4516 91.7382Z" fill="white" fill-opacity="0.2"/>
<path id="Vector_2" d="M33.9965 74.4121C33.9965 81.4504 34.6363 105.123 34.6363 109.18C34.6363 112.559 39.3001 118.01 41.7258 117.498L42.4606 117.075C42.6145 116.909 42.7422 116.697 42.8514 116.429C45.0905 110.779 41.5719 108.22 41.7826 105.443C41.8721 104.273 44.0861 102.814 44.3296 101.023C44.3296 100.824 44.3219 100.607 44.3165 100.389C43.9911 98.6612 41.6996 96.5116 41.8918 93.9264C42.0512 91.707 43.4333 90.5618 44.0545 88.0989C44.24 87.3751 44.3547 86.5301 44.3547 85.5072V77.9318L43.8372 77.7593L33.9965 74.4132V74.4121Z" fill="#2F2F7B"/>
<path id="Vector_3" d="M39.1365 69.1963C39.1551 75.5686 41.4204 80.4191 45.2403 82.8754C47.058 84.0468 49.2261 84.68 51.6705 84.68C54.6967 84.68 57.9085 83.7073 61.2229 81.7946C72.3114 75.3961 81.3005 59.8163 81.2623 47.0772C81.2438 40.8643 79.0942 36.0979 75.4402 33.5837C73.5723 32.2922 71.3005 31.5869 68.7284 31.5869C65.7022 31.5869 62.4904 32.5596 59.1825 34.4734C56.9882 35.7398 54.8757 37.3653 52.8997 39.2584C46.9172 44.9844 42.1835 53.1493 40.1737 61.1722C39.4946 63.8982 39.1311 66.6046 39.1376 69.1952L39.1365 69.1963Z" fill="#FAFFCA"/>
<path id="Vector_4" d="M41.0549 69.19C41.0746 74.9171 42.9938 79.0306 46.1227 81.142C54.9917 87.3102 91.7157 139.289 104.052 149.028C98.5684 144.606 95.1393 136.974 94.7551 126.678C94.7288 126.084 94.7168 125.475 94.7168 124.862C94.6972 117.19 96.3042 109.02 99.1579 100.99C103.079 89.9794 109.357 79.237 117.034 70.4323C122.395 64.2773 128.442 59.0687 134.839 55.3777C142.902 50.7193 150.426 49.1069 156.735 50.1691C140.054 45.6516 102.9 41.0894 83.648 37.2575C83.315 37.1931 82.9886 37.1297 82.6753 37.0599C78.6512 36.2411 75.4907 35.454 73.5835 34.7105C70.1217 32.7913 65.375 33.1177 60.1413 36.1374C51.5299 41.1079 44.2678 51.8394 41.8868 62.2107C41.3366 64.5851 41.0495 66.9323 41.0549 69.1911V69.19Z" fill="url(#paint0_linear_1_1553)"/>
<path id="Vector_5" d="M11.8114 53.3547C11.8299 59.5283 13.9599 64.263 17.5625 66.7903L17.5887 66.8024L19.1553 67.7183L19.1946 67.7369L45.2417 82.8756C41.4218 80.4193 39.1576 75.5688 39.138 69.1965C39.1314 66.6179 39.4895 63.9312 40.1609 61.2183C40.1674 61.2052 40.1674 61.1866 40.174 61.1735C42.1827 53.1505 46.9175 44.9856 52.9001 39.2596C54.8772 37.3666 56.9885 35.741 59.1828 34.4747C62.4907 32.562 65.7025 31.5882 68.7288 31.5882C71.3008 31.5882 73.5727 32.2923 75.4406 33.5849L75.4657 33.515L47.8378 17.5641L46.9164 17.0335L46.8651 17.0008C45.2646 16.1885 43.4284 15.7529 41.4011 15.7529C38.3814 15.7529 35.1685 16.7191 31.8552 18.6318C22.9938 23.7497 15.4697 34.7236 12.8267 45.4343C12.1618 48.1276 11.8037 50.7957 11.8103 53.3558L11.8114 53.3547Z" fill="#0B7030"/>
<path id="Vector_6" d="M117.034 155.946C123.127 155.946 129.635 153.974 136.375 150.085C159.274 136.863 177.845 104.698 177.772 78.3834C177.732 65.1181 173.083 55.1497 164.679 50.3112C162.391 48.9935 159.859 48.095 157.157 47.6442C155.786 47.4127 154.349 47.2959 152.893 47.2959C146.801 47.2959 140.297 49.2686 133.561 53.1606C110.66 66.3735 92.0866 98.5418 92.1587 124.868C92.1914 136.411 95.8443 145.699 102.447 151.02C102.619 151.159 102.793 151.291 102.959 151.417L103.086 151.513C106.999 154.42 111.815 155.947 117.035 155.947L117.034 155.946Z" fill="#FAFFCA"/>
<path id="Vector_7" d="M94.7163 124.861C94.7229 128.949 95.1967 132.647 96.0722 135.923C97.6072 141.63 100.366 146.057 104.05 149.027C104.249 149.187 104.447 149.333 104.632 149.474C112.048 154.983 122.95 154.874 135.094 147.867C157.323 135.034 175.282 103.933 175.212 78.3909C175.174 65.6583 170.671 56.7139 163.401 52.5294C161.379 51.3646 159.147 50.5709 156.735 50.168C153.535 49.6309 150.017 49.7772 146.28 50.6669C142.652 51.5239 138.814 53.0862 134.84 55.3766C112.606 68.2053 94.6465 99.319 94.7174 124.861H94.7163Z" fill="#14AB4C"/>
<path id="Vector_8" d="M117.034 70.4309L125.576 78.9211L135.869 89.1526C134.423 88.3196 132.427 88.4419 130.233 89.7018C125.856 92.2367 122.318 98.359 122.331 103.394C122.338 105.883 123.22 107.642 124.641 108.467L110.624 104.352L99.1585 100.987C103.08 89.9758 109.357 79.2333 117.035 70.4287L117.034 70.4309Z" fill="#E2EC85"/>
<path id="Vector_9" d="M130.232 89.7087C125.853 92.236 122.318 98.3583 122.333 103.391C122.347 108.416 125.905 110.445 130.283 107.916C134.658 105.391 138.193 99.2688 138.179 94.2426C138.165 89.2109 134.606 87.1825 130.232 89.7098V89.7087Z" fill="#0B7030"/>
<path id="Vector_10" d="M34.4638 111.298L42.8612 118.494L42.4616 81.261L33.609 76.1157L34.4638 111.298Z" fill="#14AB4C"/>
<path id="Vector_11" d="M42.8608 118.493L52.7626 112.814V87.7793L49.4711 84.18L42.4613 81.2607L42.8608 118.493Z" fill="#5CDE69"/>
</g>
<ellipse id="Ellipse 1824" cx="2.18004" cy="2.8288" rx="2.06645" ry="1.88691" fill="#14AB4C"/>
<ellipse id="Ellipse 1831" cx="58.2568" cy="186.246" rx="2.06645" ry="1.88691" fill="#14AB4C"/>
<ellipse id="Ellipse 1832" cx="187.337" cy="22.2097" rx="1.43758" ry="1.35665" fill="#14AB4C"/>
<ellipse id="Ellipse 1829" cx="117.702" cy="8.80962" rx="3.38868" ry="3.21196" fill="#0B7030"/>
<ellipse id="Ellipse 1830" cx="173.996" cy="110.488" rx="3.08248" ry="2.81466" fill="#D8FF35"/>
<ellipse id="Ellipse 1833" cx="116.321" cy="188.077" rx="2.00719" ry="1.8328" fill="#D8FF35"/>
</g>
<defs>
<linearGradient id="paint0_linear_1_1553" x1="98.399" y1="36.656" x2="108.165" y2="149.036" gradientUnits="userSpaceOnUse">
<stop offset="0.12822" stop-color="#D4F938"/>
<stop offset="1" stop-color="#32D875" stop-opacity="0.96"/>
</linearGradient>
</defs>
</svg>
