<svg width="25" height="20" viewBox="0 0 25 20" fill="none" xmlns="http://www.w3.org/2000/svg">
<g id="Twitter logo" clip-path="url(#clip0_1_2266)">
<path id="Vector" d="M24.3198 3.11671C23.4203 3.49635 22.4661 3.74555 21.4891 3.85602C22.5068 3.27494 23.2882 2.35478 23.6561 1.25841C22.6887 1.80533 21.6303 2.19067 20.5265 2.39778C19.6275 1.4853 18.3467 0.915039 16.9291 0.915039C14.2073 0.915039 12.0005 3.0173 12.0005 5.61017C12.0005 5.97821 12.0442 6.33652 12.1281 6.68025C8.03215 6.48438 4.40066 4.61518 1.96981 1.7745C1.54567 2.46795 1.30263 3.27458 1.30263 4.13494C1.30263 5.76393 2.17278 7.20098 3.49513 8.04301C2.71249 8.01966 1.94706 7.81828 1.26275 7.45568C1.26247 7.47534 1.26247 7.49501 1.26247 7.51477C1.26247 9.78965 2.9613 11.6874 5.21582 12.1187C4.49008 12.3067 3.72882 12.3343 2.9902 12.1992C3.61731 14.0645 5.43747 15.4219 7.59403 15.4599C5.90731 16.7192 3.78218 17.4698 1.47323 17.4698C1.07536 17.4698 0.683122 17.4476 0.297546 17.4042C2.4786 18.7364 5.06916 19.5137 7.85236 19.5137C16.9177 19.5137 21.8748 12.3592 21.8748 6.15468C21.8748 5.95104 21.8701 5.74855 21.8605 5.54723C22.8254 4.88273 23.6582 4.05968 24.3198 3.11671Z" fill="white"/>
</g>
<defs>
<clipPath id="clip0_1_2266">
<rect width="24.0223" height="18.684" fill="white" transform="translate(0.297668 0.84082)"/>
</clipPath>
</defs>
</svg>
